PathFileType	4	(X/Y/Z)	C:\Users\WrightLab\Desktop\Jo\P5V41.trc
DataRate	CameraRate	NumFrames	NumMarkers	Units	OrigDataRate	OrigDataStartFrame	OrigNumFrames
100.00	100.00	      20	19	mm	100.00	713	      1140
Frame#	Time	Headset_Front			Headset_Back			Headset_Left			Headset_Right			Left_Shoulder			Right_Shoulder			Sternum			C7			Left Elbow			Right Elbow			Left Wrist			Right Wrist			Left ASIS			Right ASIS			S2			Left Knee			Right Knee			Left Ankle			Right Ankle			
		X1	Y1	Z1	X2	Y2	Z2	X3	Y3	Z3	X4	Y4	Z4	X5	Y5	Z5	X6	Y6	Z6	X7	Y7	Z7	X8	Y8	Z8	X9	Y9	Z9	X10	Y10	Z10	X11	Y11	Z11	X12	Y12	Z12	X13	Y13	Z13	X14	Y14	Z14	X15	Y15	Z15	X16	Y16	Z16	X17	Y17	Z17	X18	Y18	Z18	X19	Y19	Z19	

713	7.120	-302.63324	1399.42310	302.27423	-416.42792	1478.25757	247.70032							-83.94720	1528.46350	60.34759	-453.18903	1390.21606	112.27116	-236.29582	1282.43433	103.38254	-319.27997	1533.65796	-34.08741	29.27210	1221.32776	-0.13672	-477.06592	1095.55713	84.08283	18.79157	969.35242	41.55732	-377.63220	949.88965	244.42586	-93.62608	934.14404	38.83729	-378.99747	916.66949	57.28121	-229.37590	1016.53442	-195.33746	-100.51313	500.86002	14.14730	-431.10703	525.52435	72.06524	-130.93277	93.17285	-98.60352	-446.21045	123.21167	-22.83279	
714	7.130	-304.92767	1402.22363	310.13782	-418.66705	1479.71301	246.90253							-86.00790	1527.57214	61.86477	-455.45499	1390.77563	111.26476	-239.47496	1282.08948	103.88165	-320.75458	1533.19214	-34.65350	27.62677	1221.06079	0.73983	-480.89337	1096.49280	81.76244	15.65311	968.61768	44.02251	-381.38464	951.34937	243.77882	-95.57626	933.59637	38.66621	-381.74283	917.01678	57.78238	-229.87688	1015.25848	-194.15294	-101.11034	500.47205	15.77314	-434.24158	525.63794	73.22887	-131.02524	93.35366	-98.66583	-451.80328	124.11739	-24.41902	
715	7.140	-307.61539	1403.74048	310.11292	-421.33075	1481.01953	246.60481							-87.71969	1527.19373	62.36230	-458.33411	1391.12769	109.95170	-242.02464	1281.75171	103.77322	-322.00284	1533.09973	-35.22556	26.33124	1220.69910	3.17219	-484.32401	1097.10706	80.74367	13.82235	967.50165	45.56914	-387.06216	954.11353	242.70644	-97.67150	932.61334	39.90606	-384.11844	915.58441	57.57149	-230.25006	1014.37598	-192.77319	-101.87941	499.80801	18.51585	-438.99405	526.06921	75.22070	-131.01134	93.60125	-98.39700	-457.85098	125.37201	-25.55959	
716	7.150	-309.85071	1404.77539	310.23944	-423.85611	1482.27698	246.35873							-89.89307	1526.64368	62.25450	-460.74399	1391.48792	108.70581	-245.12949	1282.09863	104.15071	-323.35040	1532.75415	-36.80849	22.81080	1218.90576	4.30068	-488.08600	1097.38306	78.91917	11.22631	966.62866	47.77800	-391.09662	955.05890	242.28157	-99.92617	932.00787	41.58537	-386.51074	915.67719	58.40570	-230.93495	1013.26080	-191.68059	-102.75986	499.27271	20.86561	-444.71021	526.93353	77.06976	-131.01134	93.60125	-98.39700	-463.44272	126.11834	-27.41064	
717	7.160	-312.92197	1406.82935	310.69101	-426.02615	1483.44922	245.61440							-92.10862	1525.92053	62.51952	-463.59500	1391.99695	107.20949	-247.58058	1281.47375	104.26398	-325.36749	1532.63367	-37.32688	22.13379	1218.45557	6.81843	-491.80234	1098.04675	77.62762	8.05791	965.16632	49.84675	-395.67432	956.42151	242.45496	-101.54715	931.32983	43.35027	-389.20084	914.96680	57.81968	-231.42554	1012.25000	-191.21095	-103.78409	498.51709	23.39269	-449.47452	526.82513	78.47546	-130.96109	93.43616	-98.32236	-470.58218	127.35609	-27.98528	
718	7.170	-315.30139	1408.09338	310.52029	-428.61710	1484.58203	245.82092							-94.12235	1525.22668	63.37385	-466.35098	1391.98853	106.13907	-250.93637	1281.54883	104.12402	-327.00952	1532.27295	-37.83789	17.40880	1217.04358	8.29798	-495.01376	1097.59741	74.47270	5.05567	964.80756	52.64544	-400.38528	958.78906	242.42487	-104.61971	931.23102	45.46735	-392.23257	914.76202	58.40027	-232.10608	1011.11981	-189.77115	-103.75715	498.51282	26.26276	-455.09598	527.05774	80.35907	-131.09380	93.41380	-98.35267	-477.23611	127.60221	-29.26231	
719	7.180	-318.30499	1409.59705	310.87314	-431.34851	1485.56201	245.51595							-97.01318	1522.88916	64.18484	-469.45923	1392.78052	104.80424	-254.31209	1281.42725	104.51610	-328.78143	1532.34497	-38.69436	16.28569	1215.87146	10.11945	-499.04614	1098.37366	73.27203	2.41718	964.34985	55.13329	-404.93985	960.15485	242.14342	-107.83125	930.73114	47.16785	-394.28876	913.86823	57.62843	-232.06108	1010.27948	-189.50128	-104.48754	497.92929	28.39083	-459.70786	526.73120	81.81926	-131.38901	93.65667	-98.34779	-483.58786	128.32422	-30.21365	
720	7.190	-320.78897	1410.68848	310.69550	-433.77072	1486.87683	244.65088							-98.71217	1523.81934	64.62745	-472.94131	1393.52783	103.79655	-257.05881	1281.16577	104.84312	-330.50919	1532.29248	-39.36546	12.69899	1215.83875	11.67162	-502.60938	1098.45557	74.39850	-0.22368	962.49426	57.39402	-409.30353	961.08014	242.28394	-110.36194	929.46387	49.17398	-397.72476	914.02631	58.21560	-232.66919	1008.73383	-188.56097	-105.46099	497.99112	31.22025	-466.09979	527.62994	83.63387	-131.18634	93.59456	-98.41500	-491.08084	129.63766	-31.37436	
721	7.200	-323.12851	1411.31982	310.42746	-436.48300	1487.62744	244.94127							-101.75699	1523.28210	65.35206	-477.06564	1393.11951	100.90609	-261.23050	1281.85388	105.49472	-332.81024	1532.16296	-40.59108	9.57505	1213.49744	13.80042	-507.24167	1099.87378	72.64374	-3.35360	961.92352	60.19910	-414.06165	962.05872	242.43896	-113.86044	928.98450	51.86912	-401.79840	914.41046	58.37495	-232.32489	1007.53461	-186.72237	-105.72467	498.16772	35.29333	-471.61942	527.79114	85.57587	-131.09380	93.41380	-98.35267	-498.06830	130.47304	-31.59830	
722	7.210	-326.28122	1412.72095	310.50928	-439.25317	1488.58118	244.46632							-103.98698	1522.46802	65.84888	-480.15167	1394.31348	99.26219	-264.72021	1281.62305	106.07227	-334.82971	1531.96191	-40.96944	6.37526	1213.06763	15.77509	-510.96182	1100.44263	70.29571	-6.59361	961.08411	62.69703	-419.00497	963.57721	242.10519	-117.06792	928.26678	53.81454	-403.66449	913.44403	58.37635	-232.99725	1007.50372	-187.40269	-106.95150	497.85336	37.34262	-477.15277	527.81158	87.38084	-131.68198	93.71923	-98.43529	-505.16928	131.20103	-32.39766	
723	7.220	-329.26849	1414.41565	309.96408	-442.07544	1489.48254	243.82089							-106.98135	1522.04419	66.13782	-484.05090	1395.50928	97.53216	-268.63409	1282.18823	106.12276	-337.01111	1532.08044	-41.73033	3.88373	1212.58911	18.54177	-515.28101	1100.60181	71.09916	-9.68553	961.00525	65.23251	-424.27502	965.14252	242.43655	-120.04897	928.03986	56.56650	-408.00616	913.80817	59.81953	-233.66498	1006.34998	-186.91724	-107.31644	498.20816	40.87268	-482.38016	528.27362	88.62018	-131.61902	93.56273	-98.37251	-513.39258	132.36288	-33.01497	
724	7.230	-332.31979	1415.88049	309.86200	-445.37668	1490.59229	243.69131							-110.30513	1521.40222	67.19056	-487.37347	1395.31128	96.33632	-272.05106	1282.44556	106.80704	-339.07050	1531.65271	-41.96332	-1.19433	1210.10742	17.61964	-519.54242	1101.80005	69.88127	-12.88173	960.10315	68.20633	-429.20639	965.39819	242.24579	-123.75548	927.33679	58.57785	-412.11072	914.71375	60.46404	-234.20842	1005.31433	-185.09538	-108.26630	498.44388	44.36599	-487.70380	528.93475	89.97636	-131.68198	93.71923	-98.43529	-520.80261	132.74451	-33.45584	
725	7.240	-336.46933	1417.09290	309.99823	-448.49591	1491.50989	243.01215							-113.12155	1521.70361	67.16622	-491.71042	1395.87183	95.02764	-276.30780	1283.13745	107.63327	-341.75626	1531.58582	-43.18830	-3.97929	1210.73840	20.21639	-523.48175	1101.80286	67.84338	-17.02275	959.30530	70.58638	-434.13391	967.10022	242.29308	-127.86510	927.33203	59.47794	-414.62323	913.82166	60.45546	-234.77682	1004.27393	-183.52612	-110.10632	498.41287	48.41314	-493.06757	529.28192	90.67204	-131.68198	93.71923	-98.43529	-528.78064	133.91273	-33.05564	
726	7.250	-338.89658	1418.05518	309.28656	-452.16354	1492.77209	242.81685							-116.93595	1521.29321	67.85004	-495.41391	1396.38245	93.70132	-279.96945	1283.58069	108.16810	-344.20724	1531.33850	-42.91359	-6.68886	1210.64185	24.84188	-527.81049	1102.54993	67.98588	-20.43864	959.06744	74.02678	-439.43216	968.23462	243.00758	-131.20869	927.98822	62.56559	-419.62677	915.05896	61.97453	-235.78079	1003.06995	-181.37358	-111.69845	498.89755	53.09831	-498.47269	529.74878	91.42048	-132.82509	93.83159	-98.00184	-537.11328	133.40343	-32.17392	
727	7.260	-342.91003	1419.27332	309.33191	-455.83148	1493.89832	241.88329							-120.43807	1521.53101	68.81039	-500.04675	1396.82190	92.51678	-284.51230	1284.30115	109.38154	-347.48007	1531.15112	-44.36503	-11.57706	1210.86243	26.44018	-532.26678	1102.50623	66.92700	-24.04784	959.21777	77.34383	-444.76593	968.68884	243.13005	-133.92714	927.39545	65.01171	-422.55276	914.75623	62.75088	-236.94144	1002.97595	-180.39137	-113.49617	499.37338	58.22673	-503.62079	530.15161	91.04813	-133.10428	93.64304	-97.74181	-545.18933	133.33119	-31.54015	
728	7.270	-346.73123	1420.53979	309.21768	-459.68677	1494.42859	241.31816							-124.39916	1521.93250	68.47326	-504.12637	1397.63806	90.99162	-288.96579	1284.93896	110.35215	-350.48685	1530.92029	-44.52277	-15.00716	1211.00842	29.42756	-536.83893	1103.41406	66.82166	-28.14267	959.65747	80.45402	-449.66843	969.59363	242.58693	-137.79961	928.09875	67.45765	-425.62299	914.96527	64.00068	-238.87523	1002.03827	-178.92281	-115.86768	499.28967	61.88464	-509.34589	530.41199	91.29916	-133.30409	93.62697	-97.75967	-553.11987	134.14407	-31.13496	
729	7.280	-350.40149	1422.29077	308.91461	-463.62048	1495.26807	240.51707							-128.13252	1522.50806	70.03094	-508.84427	1397.67603	89.24642	-293.50601	1285.73120	111.53067	-353.78278	1531.44165	-45.91210	-18.47503	1211.41809	30.92748	-541.23865	1103.89417	65.76407	-32.18171	960.34943	84.10067	-455.31326	969.77484	242.78262	-141.46059	928.09930	70.29885	-429.55215	915.35114	64.72787	-240.62447	1001.68390	-177.13335	-118.10185	499.61945	66.57603	-514.93872	530.16974	91.20322	-133.31540	93.57244	-97.97540	-561.33777	133.90163	-30.01581	
730	7.290	-355.72223	1424.27942	309.39337	-468.13513	1496.13086	239.87608							-132.51286	1522.75793	70.38632	-513.03180	1398.34900	88.02158	-297.66025	1286.30164	112.21529	-357.05197	1531.07300	-46.52034	-22.83203	1212.07312	33.68303	-546.15863	1103.79993	67.59676	-36.05708	959.92688	86.97283	-460.53976	970.29321	242.38330	-145.11322	929.08948	74.31310	-432.74133	916.53864	66.45458	-242.94484	1000.97021	-175.69875	-121.24415	500.02960	70.50078	-520.06946	529.96991	90.66481	-133.30409	93.62697	-97.75967	-569.53058	134.37234	-29.86518	
731	7.300	-359.83133	1425.68481	309.56683	-472.71887	1496.93213	239.15663							-136.69273	1523.19788	71.89339	-517.94141	1398.15149	87.21389	-301.22205	1286.94751	113.16313	-360.79346	1530.80786	-46.37214	-27.25117	1212.31616	36.56204	-550.25885	1103.50159	64.71635	-40.42096	961.25116	90.20426	-465.56009	970.01666	242.46440	-149.24394	929.24554	77.22205	-437.02243	915.73145	67.72520	-245.01021	1000.77722	-174.23747	-124.35010	500.76602	74.27061	-525.58588	529.60083	90.94299	-133.51204	94.19676	-97.13781	-577.67639	134.04575	-28.76492	
732	7.310	-363.85782	1427.04565	309.16998	-477.75964	1497.41577	238.89606							-141.00824	1523.76880	71.78970	-522.45013	1398.79419	86.09722	-305.84528	1287.90137	114.73740	-364.54111	1530.66602	-47.10511	-30.86264	1212.61743	38.82125	-555.08899	1104.14258	64.78106	-45.33818	961.97302	94.05262	-470.48730	969.59198	242.02054	-153.39847	929.74365	79.28232	-440.71759	916.04407	69.38324	-247.92894	999.96039	-172.11292	-127.69455	501.29889	78.81603	-530.81110	529.16547	89.91555	-133.56056	94.61824	-97.01981	-584.98889	132.97293	-27.20127	
